<svg width="4400" height="2475" xmlns="http://www.w3.org/2000/svg" xmlns:xlink="http://www.w3.org/1999/xlink" xml:space="preserve" overflow="hidden"><defs><clipPath id="clip0"><rect x="0" y="0" width="4400" height="2475"/></clipPath><clipPath id="clip1"><rect x="0" y="0" width="4400" height="2475"/></clipPath><clipPath id="clip2"><rect x="2785" y="0" width="1615" height="1166"/></clipPath><clipPath id="clip3"><rect x="2785" y="0" width="1615" height="1167"/></clipPath></defs><g clip-path="url(#clip0)"><g clip-path="url(#clip1)"><rect x="0" y="0" width="4400" height="2475" fill="#2849FD" fill-opacity="1"/><path d="M3932.5 2085C3733.3 2085 3569.45 1933.65 3549.75 1739.7L3548 1705 4317 1705 4315.25 1739.7C4295.55 1933.65 4131.7 2085 3932.5 2085Z" fill="#FFFFFF" fill-rule="evenodd" fill-opacity="1"/><path d="M4317.77 2475 3547.23 2475 3547 2470.36C3547 2257.53 3719.59 2085 3932.5 2085 4145.41 2085 4318 2257.53 4318 2470.36L4317.77 2475Z" fill="#FF2828" fill-rule="evenodd" fill-opacity="1"/><g clip-path="url(#clip2)"><g clip-path="url(#clip3)"><g><path d="M2463.24 1237.37C2463.24 1914.4 1914.4 2463.24 1237.37 2463.24 560.341 2463.24 11.4997 1914.4 11.4997 1237.37 11.4997 560.341 560.341 11.4997 1237.37 11.4997 1914.4 11.4997 2463.24 560.341 2463.24 1237.37Z" stroke="#FFFFFF" stroke-width="22.9995" stroke-linecap="butt" stroke-linejoin="miter" stroke-miterlimit="4" stroke-opacity="0.2" fill="none" fill-rule="nonzero" transform="matrix(1.00025 0 0 1 2785 -1308.74)"/><path d="M2327.19 1237.37C2327.19 1839.26 1839.26 2327.19 1237.37 2327.19 635.483 2327.19 147.555 1839.26 147.555 1237.37 147.555 635.483 635.483 147.555 1237.37 147.555 1839.26 147.555 2327.19 635.483 2327.19 1237.37Z" stroke="#FFFFFF" stroke-width="22.9995" stroke-linecap="butt" stroke-linejoin="miter" stroke-miterlimit="4" stroke-opacity="0.2" fill="none" fill-rule="nonzero" transform="matrix(1.00025 0 0 1 2785 -1308.74)"/><path d="M2180.1 1237.37C2180.1 1758.03 1758.03 2180.1 1237.37 2180.1 716.718 2180.1 294.644 1758.03 294.644 1237.37 294.644 716.718 716.718 294.644 1237.37 294.644 1758.03 294.644 2180.1 716.718 2180.1 1237.37Z" stroke="#FFFFFF" stroke-width="22.9995" stroke-linecap="butt" stroke-linejoin="miter" stroke-miterlimit="4" stroke-opacity="0.2" fill="none" fill-rule="nonzero" transform="matrix(1.00025 0 0 1 2785 -1308.74)"/><path d="M2018.31 1237.37C2018.31 1668.67 1668.67 2018.31 1237.37 2018.31 806.076 2018.31 456.441 1668.67 456.441 1237.37 456.441 806.076 806.076 456.441 1237.37 456.441 1668.67 456.441 2018.31 806.076 2018.31 1237.37Z" stroke="#FFFFFF" stroke-width="22.9995" stroke-linecap="butt" stroke-linejoin="miter" stroke-miterlimit="4" stroke-opacity="0.2" fill="none" fill-rule="nonzero" transform="matrix(1.00025 0 0 1 2785 -1308.74)"/><path d="M1871.22 1237.37C1871.22 1587.43 1587.43 1871.22 1237.37 1871.22 887.309 1871.22 603.527 1587.43 603.527 1237.37 603.527 887.309 887.309 603.527 1237.37 603.527 1587.43 603.527 1871.22 887.309 1871.22 1237.37Z" stroke="#FFFFFF" stroke-width="22.9995" stroke-linecap="butt" stroke-linejoin="miter" stroke-miterlimit="4" stroke-opacity="0.2" fill="none" fill-rule="nonzero" transform="matrix(1.00025 0 0 1 2785 -1308.74)"/><path d="M1709.42 1237.37C1709.42 1498.08 1498.08 1709.42 1237.37 1709.42 976.665 1709.42 765.321 1498.08 765.321 1237.37 765.321 976.665 976.665 765.321 1237.37 765.321 1498.08 765.321 1709.42 976.665 1709.42 1237.37Z" stroke="#FFFFFF" stroke-width="22.9995" stroke-linecap="butt" stroke-linejoin="miter" stroke-miterlimit="4" stroke-opacity="0.2" fill="none" fill-rule="nonzero" transform="matrix(1.00025 0 0 1 2785 -1308.74)"/></g></g></g></g></g></svg>