<svg width="4400" height="2475" xmlns="http://www.w3.org/2000/svg" xmlns:xlink="http://www.w3.org/1999/xlink" xml:space="preserve" overflow="hidden"><defs><clipPath id="clip0"><rect x="0" y="0" width="4400" height="2475"/></clipPath><clipPath id="clip1"><rect x="0" y="0" width="4400" height="2475"/></clipPath><clipPath id="clip2"><rect x="3609" y="0" width="568" height="1427"/></clipPath><clipPath id="clip3"><rect x="3609" y="0" width="568" height="1427"/></clipPath><clipPath id="clip4"><rect x="3609" y="0" width="568" height="1427"/></clipPath></defs><g clip-path="url(#clip0)"><g clip-path="url(#clip1)"><rect x="0" y="0" width="4400" height="2475" fill="#2849FD" fill-opacity="1"/><path d="M3893 2094C4090.8 2094 4253.49 2244.12 4273.05 2436.5L4275 2475 3511 2475 3512.95 2436.5C3532.51 2244.12 3695.2 2094 3893 2094Z" fill="#FF2828" fill-rule="evenodd" fill-opacity="1"/><g clip-path="url(#clip2)"><g clip-path="url(#clip3)"><g clip-path="url(#clip4)"><path d="M0 1426.5 1426.5 1426.5 1426.5 1543.57 0 1543.57Z" fill="#FF2828" fill-rule="nonzero" fill-opacity="1" transform="matrix(6.12323e-17 -1.00035 1 6.12536e-17 2182.5 1427)"/><path d="M225.466 1426.5 1651.97 1426.5 1651.97 1543.57 225.466 1543.57Z" fill="#FF2828" fill-rule="nonzero" fill-opacity="1" transform="matrix(6.12323e-17 -1.00035 1 6.12536e-17 2407.96 1652.54)"/><path d="M450.931 1426.5 1877.43 1426.5 1877.43 1543.57 450.931 1543.57Z" fill="#FF2828" fill-rule="nonzero" fill-opacity="1" transform="matrix(6.12323e-17 -1.00035 1 6.12536e-17 2633.43 1878.09)"/></g></g></g></g></g></svg>