<?xml version="1.0" standalone="no"?><!DOCTYPE svg PUBLIC "-//W3C//DTD SVG 1.1//EN" "http://www.w3.org/Graphics/SVG/1.1/DTD/svg11.dtd"><svg t="1720426194086" class="icon" viewBox="0 0 1024 1024" version="1.1" xmlns="http://www.w3.org/2000/svg" p-id="6101" xmlns:xlink="http://www.w3.org/1999/xlink" width="200" height="200"><path d="M920.405333 35.328H103.594667a68.266667 68.266667 0 0 0-68.266667 68.266667v816.810666a68.266667 68.266667 0 0 0 68.266667 68.266667h816.810666a68.266667 68.266667 0 0 0 68.266667-68.266667V103.594667a68.266667 68.266667 0 0 0-68.266667-68.266667zM325.461333 687.104a25.088 25.088 0 0 1-35.157333 0L132.608 529.066667a24.746667 24.746667 0 0 1 0-35.157334L290.133333 337.066667a24.917333 24.917333 0 0 1 35.328 35.157333L185.514667 512l139.946666 139.776a25.088 25.088 0 0 1 0 35.328z m308.736-337.92L609.450667 392.533333 434.005333 700.757333a25.6 25.6 0 0 1-44.202666-25.941333L414.549333 631.466667l175.445334-308.224a25.6 25.6 0 0 1 44.202666 25.941333zM891.392 529.066667L733.866667 687.104a24.917333 24.917333 0 0 1-35.157334-35.328L838.485333 512l-139.946666-139.776A24.917333 24.917333 0 0 1 733.866667 337.066667L891.392 494.933333a24.746667 24.746667 0 0 1 0 34.133334z" fill="#333333" p-id="6102"></path></svg>