<svg width="4400" height="2475" xmlns="http://www.w3.org/2000/svg" xmlns:xlink="http://www.w3.org/1999/xlink" xml:space="preserve" overflow="hidden"><g><g><rect x="0" y="0" width="4400" height="2475" fill="#FFFFFF" fill-opacity="1"/><g><g><g><path d="M75.4774 45.0157C74.2014 46.2994 73.2244 47.8488 72.6157 49.553 72.007 51.2575 71.7818 53.0752 71.9558 54.8767L71.8952 54.8161C72.0743 56.9368 71.7882 59.0706 71.0573 61.0694 70.3263 63.0678 69.1682 64.8828 67.6637 66.3877 66.1587 67.8923 64.3438 69.0507 62.345 69.7813 60.3465 70.5122 58.2124 70.7984 56.0921 70.6192L56.1527 70.6798C53.6162 70.4438 51.0687 70.9956 48.8571 72.2605 46.6459 73.5254 44.8784 75.4413 43.796 77.7475 42.7136 80.0537 42.3685 82.6372 42.8082 85.1468 43.2482 87.6559 44.4511 89.9685 46.2533 91.769 48.0555 93.5695 50.3691 94.7704 52.8786 95.2077 55.3884 95.6454 57.9717 95.2979 60.2768 94.2135 62.582 93.1288 64.4963 91.3599 65.7591 89.1474 67.022 86.9348 67.5717 84.3869 67.3334 81.8505L67.3973 81.9111C67.2182 79.7907 67.5041 77.6566 68.235 75.6578 68.9659 73.6593 70.1244 71.8444 71.6289 70.3395 73.1338 68.8349 74.9488 67.6764 76.9472 66.9459 78.946 66.215 81.0798 65.9288 83.2005 66.1079L83.1365 66.0473C85.2084 66.2335 87.294 65.8938 89.1999 65.0595 91.1054 64.2253 92.7699 62.9234 94.0385 61.2747 95.307 59.6261 96.1393 57.6835 96.4571 55.6278 96.7752 53.5718 96.5692 51.469 95.8582 49.5136 95.1471 47.5586 93.954 45.8146 92.3895 44.4434 90.825 43.0722 88.9397 42.118 86.9082 41.6696 84.8768 41.2212 82.7648 41.2925 80.7684 41.8773 78.772 42.4624 76.9557 43.5418 75.4875 45.0157L75.4774 45.0157Z" fill="#394149" fill-rule="nonzero" fill-opacity="1" transform="matrix(1.02263 0 0 1 83.9999 2309)"/><path d="M50.6414 62.7412 50.5775 62.6806C52.3796 62.8621 54.1997 62.6409 55.9062 62.0329 57.6125 61.4249 59.1625 60.4455 60.4438 59.1652 61.7248 57.8848 62.7059 56.3355 63.3149 54.6296 63.9243 52.9237 64.1468 51.104 63.9667 49.3015L64.0307 49.3621C63.8516 47.2414 64.1377 45.1076 64.8683 43.1088 65.5992 41.1104 66.7577 39.2954 68.2622 37.7905 69.7671 36.286 71.5821 35.1275 73.5806 34.3969 75.5794 33.6659 77.7132 33.38 79.8338 33.559L79.7699 33.4984C82.3066 33.7367 84.8549 33.1865 87.0675 31.9231 89.2804 30.6597 91.0492 28.7445 92.1333 26.4388 93.2173 24.1331 93.5638 21.5491 93.1254 19.0392 92.6871 16.5293 91.4852 14.2158 89.6833 12.4142 87.8818 10.6125 85.5683 9.41051 83.0584 8.97211 80.5486 8.53366 77.9646 8.88013 75.6588 9.96426 73.353 11.0484 71.438 12.8174 70.1745 15.03 68.911 17.2426 68.3609 19.791 68.5992 22.3277L68.5386 22.2638C68.7181 24.3844 68.4326 26.5187 67.702 28.5175 66.9715 30.5164 65.813 32.3317 64.3084 33.8367 62.8035 35.3413 60.9882 36.4997 58.9894 37.2303 56.9903 37.9609 54.8562 38.2464 52.7355 38.0669L52.7961 38.1309C50.9939 37.9494 49.1736 38.1706 47.4673 38.7786 45.7611 39.3863 44.2111 40.366 42.9297 41.6464 41.6484 42.9267 40.6677 44.4761 40.0583 46.1819 39.4493 47.8878 39.2267 49.7075 39.4069 51.51L39.3463 51.4494C39.5247 53.5698 39.2382 55.7036 38.5073 57.702 37.776 59.7001 36.6179 61.5151 35.1133 63.0197 33.6087 64.5242 31.7939 65.6824 29.7956 66.4136 27.7972 67.1445 25.6635 67.431 23.5431 67.2526L23.6037 67.3132C21.067 67.0748 18.5185 67.6249 16.3059 68.8884 14.0933 70.152 12.3243 72.0669 11.2402 74.3727 10.1561 76.6786 9.8096 79.2625 10.248 81.7723 10.6865 84.2822 11.8885 86.5958 13.6901 88.3973 15.4918 90.1991 17.8053 91.401 20.3152 91.8394 22.825 92.2777 25.4091 91.9313 27.7148 90.8472 30.0205 89.7631 31.9357 87.9943 33.1991 85.7817 34.4626 83.5688 35.0127 81.0206 34.7743 78.4838L34.8383 78.5444C34.6592 76.4237 34.9454 74.2899 35.6763 72.2911 36.4068 70.2927 37.5653 68.4777 39.0699 66.9728 40.5748 65.4682 42.3897 64.3098 44.3882 63.5792 46.387 62.8483 48.5208 62.5621 50.6414 62.7412Z" fill="#394149" fill-rule="nonzero" fill-opacity="1" transform="matrix(1.02263 0 0 1 83.9999 2309)"/><path d="M28.078 55.9843C29.3541 54.701 30.331 53.1516 30.9391 51.4471 31.5473 49.7425 31.7717 47.9245 31.5962 46.1234L31.6601 46.184C31.481 44.063 31.767 41.9282 32.4983 39.929 33.2296 37.9299 34.3885 36.1146 35.8941 34.6097 37.3997 33.1049 39.2153 31.9468 41.2148 31.2164 43.2142 30.4859 45.349 30.2008 47.47 30.3808L47.4061 30.3202C49.9418 30.5578 52.4894 30.0074 54.701 28.7441 56.9125 27.4808 58.6804 25.5661 59.7641 23.2611 60.8475 20.9561 61.1936 18.373 60.7552 15.864 60.3169 13.3551 59.115 11.0425 57.3142 9.24151 55.5133 7.44054 53.2004 6.23891 50.6916 5.8005 48.1828 5.36206 45.5995 5.70822 43.2947 6.79168 40.9895 7.87514 39.0749 9.64322 37.8117 11.8548 36.5482 14.0663 35.9978 16.6138 36.2355 19.1496L36.1749 19.089C36.354 21.2095 36.0678 23.3435 35.3369 25.3421 34.606 27.3407 33.4479 29.1557 31.9432 30.6605 30.4384 32.1653 28.6234 33.3235 26.6248 34.0542 24.6262 34.7851 22.4922 35.0713 20.3717 34.8922L20.4323 34.9528C18.3604 34.7669 16.275 35.1073 14.3695 35.9419 12.4641 36.7765 10.8001 38.0787 9.53185 39.7277 8.26359 41.3764 7.43209 43.3189 7.11434 45.3746 6.79663 47.4306 7.00297 49.5335 7.71425 51.4882 8.42553 53.4432 9.61878 55.1868 11.1834 56.5577 12.748 57.9289 14.6333 58.8827 16.6647 59.3311 18.696 59.7793 20.8077 59.7075 22.804 59.1227 24.8003 58.5376 26.6166 57.4583 28.0847 55.9843L28.078 55.9843Z" fill="#394149" fill-rule="nonzero" fill-opacity="1" transform="matrix(1.02263 0 0 1 83.9999 2309)"/><path d="M132.367 22.4052 142.366 22.4052 142.366 71.0636 132.367 71.0636 132.367 22.4052Z" fill="#394149" fill-rule="nonzero" fill-opacity="1" transform="matrix(1.02263 0 0 1 83.9999 2309)"/><path d="M148.029 54.402C148.015 50.9054 149.039 47.4828 150.972 44.5686 152.904 41.6544 155.658 39.3793 158.885 38.0316 162.112 36.6836 165.665 36.3237 169.097 36.9973 172.528 37.671 175.682 39.3476 178.16 41.8154 180.637 44.2828 182.327 47.4303 183.014 50.8589 183.702 54.2875 183.356 57.8431 182.021 61.0751 180.686 64.3067 178.422 67.0701 175.516 69.014 172.609 70.9583 169.191 71.9962 165.694 71.9962 163.373 72.0228 161.07 71.5862 158.919 70.7122 156.769 69.8382 154.814 68.5444 153.169 66.9065 151.524 65.2683 150.223 63.3186 149.34 61.1717 148.458 59.0248 148.012 56.7233 148.029 54.402ZM173.36 54.402C173.318 52.8947 172.833 51.4333 171.965 50.2001 171.097 48.9672 169.885 48.0171 168.481 47.4694 167.076 46.9213 165.541 46.7994 164.068 47.1192 162.594 47.4391 161.247 48.1858 160.196 49.2668 159.145 50.3475 158.435 51.7144 158.157 53.1964 157.878 54.6781 158.042 56.2092 158.629 57.5983 159.215 58.9874 160.199 60.1725 161.455 61.0057 162.712 61.839 164.186 62.2834 165.694 62.2834 166.727 62.311 167.754 62.1241 168.711 61.7349 169.668 61.3458 170.534 60.7626 171.254 60.0223 171.974 59.2817 172.533 58.3999 172.895 57.4327 173.258 56.4654 173.416 55.4336 173.36 54.402Z" fill="#394149" fill-rule="nonzero" fill-opacity="1" transform="matrix(1.02263 0 0 1 83.9999 2309)"/><path d="M223.21 37.737 223.21 69.3837C223.21 80.5812 214.477 85.3148 205.613 85.3148 202.492 85.5484 199.366 84.9178 196.58 83.4927 193.794 82.0673 191.453 79.9022 189.816 77.2347L198.347 72.3026C199.035 73.693 200.132 74.84 201.49 75.5905 202.848 76.3406 204.403 76.6584 205.946 76.5008 206.932 76.6375 207.937 76.5506 208.885 76.2466 209.833 75.9426 210.701 75.4292 211.424 74.7448 212.148 74.06 212.707 73.2217 213.063 72.2911 213.418 71.3609 213.56 70.3627 213.477 69.3702L213.477 66.3234C212.306 67.7559 210.816 68.8942 209.126 69.6466 207.435 70.3991 205.592 70.7448 203.744 70.6563 199.347 70.5176 195.176 68.6733 192.114 65.5134 189.052 62.3537 187.34 58.1266 187.34 53.727 187.34 49.3274 189.052 45.1002 192.114 41.9406 195.176 38.7807 199.347 36.9364 203.744 36.7977 205.592 36.7091 207.435 37.0549 209.126 37.8074 210.816 38.5598 212.306 39.6981 213.477 41.1306L213.477 37.7303 223.21 37.737ZM213.48 53.732C213.548 52.1207 213.131 50.526 212.284 49.1534 211.438 47.7804 210.199 46.6927 208.729 46.0298 207.259 45.3665 205.624 45.1588 204.035 45.4329 202.445 45.7069 200.974 46.4503 199.811 47.5677 198.648 48.6847 197.845 50.1243 197.507 51.7013 197.169 53.2782 197.31 54.9205 197.914 56.4163 198.517 57.9121 199.554 59.1934 200.891 60.095 202.228 60.9966 203.805 61.4774 205.417 61.4754 206.468 61.5488 207.522 61.4013 208.512 61.0424 209.502 60.6835 210.406 60.121 211.166 59.3917 211.925 58.6622 212.524 57.7818 212.923 56.8068 213.321 55.8322 213.511 54.7848 213.48 53.732Z" fill="#394149" fill-rule="nonzero" fill-opacity="1" transform="matrix(1.02263 0 0 1 83.9999 2309)"/><path d="M228.873 54.402C228.859 50.9054 229.883 47.4828 231.816 44.5686 233.748 41.6544 236.502 39.3793 239.729 38.0316 242.955 36.6836 246.509 36.3237 249.94 36.9973 253.372 37.671 256.526 39.3476 259.004 41.8154 261.481 44.2828 263.171 47.4303 263.858 50.8589 264.545 54.2875 264.2 57.8431 262.865 61.0751 261.53 64.3067 259.266 67.0701 256.359 69.014 253.453 70.9583 250.035 71.9962 246.538 71.9962 244.217 72.0228 241.913 71.5862 239.763 70.7122 237.612 69.8382 235.658 68.5444 234.013 66.9065 232.368 65.2683 231.067 63.3186 230.184 61.1717 229.301 59.0248 228.856 56.7233 228.873 54.402ZM254.204 54.402C254.162 52.8947 253.677 51.4333 252.809 50.2001 251.941 48.9672 250.729 48.0171 249.325 47.4694 247.92 46.9213 246.385 46.7994 244.911 47.1192 243.438 47.4391 242.091 48.1858 241.04 49.2668 239.989 50.3475 239.279 51.7144 239 53.1964 238.721 54.6781 238.886 56.2092 239.473 57.5983 240.059 58.9874 241.042 60.1725 242.299 61.0057 243.556 61.839 245.03 62.2834 246.538 62.2834 247.57 62.311 248.598 62.1241 249.554 61.7349 250.511 61.3458 251.377 60.7626 252.098 60.0223 252.818 59.2817 253.377 58.3999 253.739 57.4327 254.102 56.4654 254.26 55.4336 254.204 54.402Z" fill="#394149" fill-rule="nonzero" fill-opacity="1" transform="matrix(1.02263 0 0 1 83.9999 2309)"/><path d="M268.866 28.8052C268.866 27.6186 269.217 26.4587 269.877 25.4721 270.536 24.4855 271.473 23.7166 272.569 23.2625 273.665 22.8084 274.872 22.6896 276.036 22.9211 277.199 23.1526 278.268 23.724 279.107 24.563 279.946 25.402 280.518 26.471 280.749 27.6348 280.981 28.7986 280.862 30.0048 280.408 31.1011 279.954 32.1973 279.185 33.1343 278.198 33.7936 277.212 34.4528 276.052 34.8046 274.865 34.8046 273.279 34.7888 271.762 34.1518 270.64 33.03 269.519 31.9083 268.881 30.3915 268.866 28.8052ZM269.876 37.737 279.878 37.737 279.878 71.067 269.862 71.067 269.876 37.737Z" fill="#394149" fill-rule="nonzero" fill-opacity="1" transform="matrix(1.02263 0 0 1 83.9999 2309)"/><path d="M323.052 54.402C323.168 56.6048 322.847 58.8086 322.107 60.8869 321.368 62.9651 320.226 64.8767 318.745 66.5119 317.265 68.1468 315.475 69.4732 313.481 70.4146 311.486 71.3555 309.324 71.8932 307.121 71.9962 305.268 72.0972 303.416 71.7848 301.699 71.0815 299.981 70.3779 298.442 69.3012 297.193 67.9293L297.193 84.3957 287.194 84.3957 287.194 37.737 297.193 37.737 297.193 40.868C298.443 39.4971 299.982 38.4211 301.699 37.7185 303.417 37.0155 305.268 36.7034 307.121 36.8044 309.325 36.9071 311.487 37.4444 313.482 38.3857 315.477 39.3271 317.267 40.6535 318.747 42.2891 320.228 43.9246 321.371 45.8369 322.109 47.9158 322.848 49.9944 323.169 52.1989 323.052 54.402ZM313.053 54.402C313.014 52.8422 312.516 51.3286 311.621 50.0502 310.725 48.7723 309.473 47.7865 308.021 47.2169 306.568 46.6469 304.98 46.5179 303.454 46.8465 301.929 47.1748 300.534 47.9457 299.445 49.0628 298.356 50.1802 297.62 51.5935 297.33 53.127 297.04 54.6602 297.209 56.2446 297.815 57.6825 298.421 59.1204 299.438 60.3472 300.738 61.2101 302.039 62.0726 303.564 62.5328 305.125 62.5325 306.196 62.5803 307.265 62.4009 308.262 62.0063 309.259 61.6121 310.162 61.0111 310.91 60.2435 311.659 59.4756 312.237 58.5585 312.606 57.5519 312.975 56.5452 313.128 55.4716 313.053 54.402Z" fill="#394149" fill-rule="nonzero" fill-opacity="1" transform="matrix(1.02263 0 0 1 83.9999 2309)"/><path d="M353.908 61.0646C353.908 68.7306 347.245 71.9962 340.047 71.9962 337.138 72.2595 334.218 71.6447 331.663 70.2304 329.108 68.8164 327.037 66.6685 325.715 64.0643L334.378 59.1322C334.728 60.3358 335.481 61.3831 336.51 62.0985 337.539 62.8143 338.785 63.1553 340.034 63.0644 342.431 63.0644 343.633 62.3305 343.633 61.0007 343.633 57.331 327.233 59.2668 327.233 47.736 327.233 40.4674 333.368 36.8044 340.3 36.8044 342.905 36.7219 345.484 37.3401 347.77 38.5941 350.056 39.8486 351.965 41.6928 353.295 43.935L344.764 48.5339C344.39 47.6609 343.767 46.9172 342.973 46.3957 342.178 45.8742 341.249 45.5982 340.3 45.6015 338.566 45.6015 337.498 46.2749 337.498 47.4667 337.512 51.2676 353.908 48.7325 353.908 61.0646Z" fill="#394149" fill-rule="nonzero" fill-opacity="1" transform="matrix(1.02263 0 0 1 83.9999 2309)"/><path d="M390.433 37.737 390.433 71.067 380.434 71.067 380.434 67.9326C379.279 69.3157 377.814 70.4055 376.158 71.1125 374.502 71.8195 372.704 72.1235 370.906 71.9996 364.173 71.9996 358.449 67.2021 358.449 58.1962L358.449 37.737 368.448 37.737 368.448 56.7317C368.364 57.5256 368.455 58.3282 368.714 59.0834 368.97 59.8388 369.391 60.529 369.943 61.1057 370.495 61.6824 371.165 62.1319 371.909 62.4231 372.65 62.7143 373.448 62.8402 374.246 62.7917 377.912 62.7917 380.444 60.6606 380.444 55.9271L380.444 37.7471 390.433 37.737Z" fill="#394149" fill-rule="nonzero" fill-opacity="1" transform="matrix(1.02263 0 0 1 83.9999 2309)"/><path d="M447.767 50.601 447.767 71.0636 437.768 71.0636 437.768 51.4663C437.768 48.1333 436.169 46.0022 432.97 46.0022 429.637 46.0022 427.769 48.3353 427.769 52.2675L427.769 71.0636 417.773 71.0636 417.773 51.4663C417.773 48.1333 416.174 46.0022 412.972 46.0022 409.639 46.0022 407.774 48.3353 407.774 52.2675L407.774 71.0636 397.775 71.0636 397.775 37.7336 407.774 37.7336 407.774 40.7973C408.811 39.4382 410.171 38.3602 411.73 37.6623 413.292 36.964 415.003 36.6681 416.706 36.8011 418.416 36.7172 420.12 37.0785 421.652 37.8491 423.18 38.6194 424.483 39.7735 425.436 41.1979 426.543 39.7075 428.011 38.5224 429.701 37.7535 431.392 36.9845 433.25 36.657 435.102 36.8011 442.754 36.8044 447.767 42.2685 447.767 50.601Z" fill="#394149" fill-rule="nonzero" fill-opacity="1" transform="matrix(1.02263 0 0 1 83.9999 2309)"/><path d="M456.224 37.5316C460.321 37.5316 463.644 34.2094 463.644 30.1115 463.644 26.0134 460.321 22.6913 456.224 22.6913 452.127 22.6913 448.804 26.0134 448.804 30.1115 448.804 34.2094 452.127 37.5316 456.224 37.5316Z" fill="#394149" fill-rule="nonzero" fill-opacity="1" transform="matrix(1.02263 0 0 1 83.9999 2309)"/></g></g></g></g></g></svg>