<svg width="4400" height="2475" xmlns="http://www.w3.org/2000/svg" xmlns:xlink="http://www.w3.org/1999/xlink" xml:space="preserve" overflow="hidden"><g><g><rect x="0" y="0" width="4400" height="2475" fill="#2849FD" fill-opacity="1"/><g><g><g><path d="M0 1427 1427 1427 1427 1544.11 0 1544.11Z" fill="#FF2828" fill-rule="nonzero" fill-opacity="1" transform="matrix(6.13188e-17 -1 1.00141 6.12323e-17 1957.98 1427)"/><path d="M225.544 1427 1652.54 1427 1652.54 1544.11 225.544 1544.11Z" fill="#FF2828" fill-rule="nonzero" fill-opacity="1" transform="matrix(6.13188e-17 -1 1.00141 6.12323e-17 2183.85 1652.54)"/><path d="M451.088 1427 1878.09 1427 1878.09 1544.11 451.088 1544.11Z" fill="#FF2828" fill-rule="nonzero" fill-opacity="1" transform="matrix(6.13188e-17 -1 1.00141 6.12323e-17 2409.71 1878.09)"/></g></g></g><path d="M3290 1912.5C3290 1701.8 3460.8 1531 3671.5 1531 3882.2 1531 4053 1701.8 4053 1912.5 4053 2123.2 3882.2 2294 3671.5 2294 3460.8 2294 3290 2123.2 3290 1912.5Z" fill="#FFFFFF" fill-rule="evenodd" fill-opacity="1"/></g></g></svg>