<?xml version="1.0" standalone="no"?><!DOCTYPE svg PUBLIC "-//W3C//DTD SVG 1.1//EN" "http://www.w3.org/Graphics/SVG/1.1/DTD/svg11.dtd"><svg t="1720489319724" class="icon" viewBox="0 0 1210 1024" version="1.1" xmlns="http://www.w3.org/2000/svg" p-id="3584" xmlns:xlink="http://www.w3.org/1999/xlink" width="236.328125" height="200"><path d="M1166.576941 930.936471a43.610353 43.610353 0 0 1 43.610353 43.610353v6.023529a43.610353 43.610353 0 0 1-43.610353 43.610353H43.610353A43.610353 43.610353 0 0 1 0 980.570353v-6.023529a43.610353 43.610353 0 0 1 43.610353-43.610353zM328.764235 279.250824a43.610353 43.610353 0 0 1 43.610353 43.610352v518.02353a43.610353 43.610353 0 0 1-43.610353 43.610353H136.734118a43.610353 43.610353 0 0 1-43.610353-43.610353v-518.02353a43.610353 43.610353 0 0 1 43.610353-43.610352z m744.688941 139.625411a43.610353 43.610353 0 0 1 43.610353 43.610353v378.217412a43.610353 43.610353 0 0 1-43.610353 43.610353h-192.030117a43.610353 43.610353 0 0 1-43.610353-43.610353V462.486588a43.610353 43.610353 0 0 1 43.610353-43.610353zM701.379765 0a43.610353 43.610353 0 0 1 43.610353 43.610353v797.093647a43.610353 43.610353 0 0 1-43.610353 43.610353H509.108706a43.610353 43.610353 0 0 1-43.610353-43.610353V43.610353A43.610353 43.610353 0 0 1 509.108706 0z" fill="#1D85ED" p-id="3585"></path></svg>